<svg width="72" height="72" viewBox="0 0 72 72" fill="none" xmlns="http://www.w3.org/2000/svg">
<g clip-path="url(#clip0_111_3327)">
<path d="M30.3357 32.5H40.6643L42 29.5H29L30.3357 32.5Z" fill="black"/>
<path d="M41.1241 4.5H29.8759L27.0491 12.2239L28.9073 22.0161H37V19.0161H31.3916L30.1509 12.4777L31.9725 7.5H39.0275L40.8491 12.4777L39.2601 20.8514L44.5903 28.5918L42.1734 42.1398L45.5 58.297V64.5H25.5V58.297L28.8266 42.1398L26.4142 28.6166L29.7916 24H26.0745L23.2355 27.8806L25.772 42.0993L22.5 57.9914V67.5H48.5V57.9914L45.228 42.0993L47.7601 27.9054L42.4409 20.1809L43.9509 12.2239L41.1241 4.5Z" fill="black"/>
</g>
<defs>
<clipPath id="clip0_111_3327">
<rect width="72" height="72" fill="white"/>
</clipPath>
</defs>
</svg>
