<?xml version="1.0" encoding="utf-8"?>
<!-- Generator: Adobe Illustrator 22.1.0, SVG Export Plug-In . SVG Version: 6.00 Build 0)  -->
<svg version="1.1" id="Layer_1" xmlns="http://www.w3.org/2000/svg" xmlns:xlink="http://www.w3.org/1999/xlink" x="0px" y="0px"
	 viewBox="0 0 162 49.8" style="enable-background:new 0 0 162 49.8;" xml:space="preserve">
<style type="text/css">
	.st0{fill:#FFFFFF;}
</style>
<g>
	<path class="st0" d="M33.1,11.3c-0.6-0.4-1.2-0.7-1.8-0.9c-0.2-0.1-0.4-0.2-0.6-0.2c0.4,0.3,0.9,0.5,1.4,0.7
		C32.5,11,32.8,11.1,33.1,11.3z"/>
	<path class="st0" d="M35,15.6c-0.1-0.1-0.2-0.2-0.3-0.3c-0.1,0.2-0.2,0.5-0.4,0.6c0,0,0.1,0,0.2,0c0,0,0,0,0,0c0.1,0,0.3,0,0.4-0.1
		c0.1,0,0.2-0.1,0.3-0.1C35.2,15.8,35.1,15.7,35,15.6z"/>
	<path class="st0" d="M30.2,12.6c-0.1,0-0.3,0-0.4,0c0.5,0.3,1,0.5,1.5,0.9c0.1,0,0.1-0.1,0.1-0.1c0,0,0-0.1,0.1-0.1l0,0l0,0
		c0.1,0,0.2,0.1,0.3,0.1c0.1,0,0.2,0.1,0.3,0.1l0,0l0,0c0,0.1-0.1,0.2-0.2,0.3c0,0,0,0,0,0l0,0c0.2,0.2,0.5,0.3,0.7,0.6c0,0,0,0,0,0
		c0,0,0.1,0,0.1,0c0.1,0,0.2,0,0.3-0.1l0,0l0,0c0,0,0,0,0.1,0c0.1,0,0.2,0.1,0.2,0.1c0.1,0.1,0.1,0.2,0,0.3c0,0.1,0,0.1,0,0.1
		c0.1,0,0.2,0.1,0.3,0.1c0.1,0.1,0.3,0.1,0.4,0.1c0.1,0,0.1,0,0.2,0c-0.2-0.2-0.4-0.4-0.7-0.6C32.6,13.6,31.4,12.6,30.2,12.6z"/>
	<path class="st0" d="M28.3,8.8c0.2,0.3,0.7,0.3,1.1,0.5C29.2,9,28.6,9,28.3,8.8z"/>
	<path class="st0" d="M28.2,14.9c-0.1,0-0.2,0-0.3,0.1c0,0.1,0,0.2,0.1,0.3c0.1,0.2,0.3,0.2,0.5,0.2c0,0,0,0,0,0
		c0.1-0.1,0.2-0.2,0.2-0.4C28.7,15,28.4,14.9,28.2,14.9z"/>
	<path class="st0" d="M44,20.9L44,20.9c-0.1-0.3-0.2-0.5-0.3-0.8c-0.7-1.8-1.4-3.6-2.7-5.5C37.8,9.8,33.1,6.8,27.3,6l-0.1,0V0.3
		h-1.5v18.3h-5.7V0.3h-1.5v5.9l-0.1,0C8.4,8.3,1,17.3,1,27.7c0,12.1,9.8,21.9,21.9,21.9c8.9,0,16.8-5.3,20.2-13.5l0,0l0-0.1l0-0.1
		c0.4-1.1,0.9-2.5,1.3-4.4C45.1,27.5,45,24.1,44,20.9z M35.6,11.1c0.1,0,0.1-0.1,0.2-0.1c0.2,0,0.4,0.1,0.4,0.3l0,0.1l-0.1,0
		c-0.1,0-0.1,0-0.2-0.1c-0.1,0-0.2-0.1-0.3-0.1l-0.1-0.1L35.6,11.1z M32.5,7.9c0.2,0.1,0.4,0.2,0.7,0.3c0.7,0.3,1.4,0.6,1.9,1.3
		l-0.1,0.1C34.5,9.3,34,9,33.6,8.8c-0.4-0.2-0.9-0.5-1.2-0.8L32.5,7.9z M27.3,6.4L27.3,6.4c1.5,0.1,3.1,0.3,4.4,1.3l-0.1,0.1
		c-1.4-0.6-2.8-0.9-4.3-1.2l-0.1,0V6.4z M27.3,6.9L27.3,6.9c1.2,0.1,2.1,0.4,2.9,0.9l0,0.1c-0.4-0.1-0.8-0.2-1.1-0.3
		c-0.6-0.1-1.1-0.3-1.7-0.4l-0.1,0V6.9z M27.3,7.3L27.3,7.3c2.3,0.5,5.2,1.3,7.9,3.6L35.1,11c-2.3-1.3-4.7-2.7-7.2-3.1c0,0,0,0,0,0
		c0,0,0.1,0,0.1,0.1L28,8L28,8c-0.2,0.1-0.3,0.1-0.5,0.1c0,0-0.1,0-0.1,0l-0.1,0V7.3z M32.9,10.3c0.1,0,0.2,0.1,0.1,0.2l0,0.1
		l-0.1,0c-0.2-0.1-0.4-0.2-0.6-0.4l-0.1-0.1l0.1,0c0,0,0.1,0,0.2,0c0.1,0,0.2,0,0.2,0.1c0,0,0.1,0,0.1,0.1l0.1,0
		C32.9,10.1,32.9,10.2,32.9,10.3C32.9,10.2,32.9,10.2,32.9,10.3z M27.3,12.7l0.1,0.1c0.1,0,0.1,0.1,0.2,0.1l0,0l0,0c0,0,0,0.1,0,0.2
		c2,0.7,3.7,1.5,5.4,3.2l0.1,0.1l-0.2,0l0,0c0,0.1,0.1,0.2,0.1,0.3c0,0,0.1,0,0.1,0c0.2,0,0.4,0.3,0.6,0.5c0.1,0.3,0.2,0.7,0,0.9
		l0,0l0,0c0,0-0.1,0-0.1,0c-0.1,0-0.1-0.1-0.2-0.1l-0.1,0l0-0.1c0,0,0.1-0.1,0.1-0.2c-0.1-0.1-0.1-0.1-0.2-0.2
		c-0.4-0.4-0.9-1-1.4-1.2l0,0l0,0c-0.2-0.2-0.9-0.4-1.3-0.4c-0.1,0-0.2,0-0.2,0l0,0l0,0c-0.1-0.1-0.5-0.2-0.8-0.2
		c-0.2,0-0.3,0-0.5,0.1c1.3,0.6,2.6,1.6,3.7,2.8l0.1,0.1h-5.5V12.7z M27.3,20.1h5.4v1.4h-5.4V20.1z M27.3,23h5.4v1.4h-5.4V23z
		 M20.1,20.1h5.7v1.4h-5.7V20.1z M20.1,23h5.7v1.4h-5.7V23z M13.2,18.5c1.5-1.5,3.3-2.7,5.2-3.4l0.1,0v3.6h-5.4L13.2,18.5z
		 M13.2,21.5v-1.4h5.4v1.4H13.2z M18.6,23v1.4h-5.4V23H18.6z M30.1,38.9c-2.1,1.4-4.6,2.1-7.2,2.1c-2.5,0-5-0.7-7.2-2.1l-0.2-0.1
		h14.7L30.1,38.9z M20.1,35.9h5.7v1.4h-5.7V35.9z M17.1,34.4c-2,0-3.7-1.3-3.9-3l0-0.1h19.4l0,0.1c-0.2,1.7-1.9,3-3.9,3H17.1z
		 M36.2,28.7c-0.2,2-0.9,4-2,6c-0.6,1-1.3,1.8-2.1,2.6l0,0h-4.9v-1.4h1.5c3,0,5.4-2.2,5.4-4.8v-1.3H11.7v1.3c0,2.7,2.4,4.8,5.4,4.8
		h1.5v1.4h-4.9l0,0c-2.4-2.3-3.8-5.3-4.1-8.6l0-0.1L36.2,28.7L36.2,28.7z M9.6,27.1L9.6,27.1c0.1-2.3,0.8-4.5,2-6.5l0.1-0.2v5.5
		h22.4v-5.6l0.1,0.2c1.3,2,2,4.2,2,6.5l0,0.1H9.6z M37.8,26.6c-0.4-0.6-0.5-1.1-0.2-1.6l0.1-0.1l0,0.1c0.2,0.6,0.3,1.1,0.2,1.5
		l0,0.2L37.8,26.6z M38.1,29.3L38.1,29.3L38,29c0-0.2,0-0.4-0.1-0.7c0-0.2,0.1-0.3,0.2-0.5l0.1-0.1l0.1,0.1c0.2,0.2,0.1,0.4,0.1,0.6
		c0,0.2,0,0.3,0,0.4c0,0,0,0,0-0.1c0,0,0-0.1,0.1-0.1c0,0,0,0,0.1,0l0,0l0,0C38.6,29,38.4,29.1,38.1,29.3z M39,28.9L39,28.9L39,28.9
		c-0.1,0-0.1,0.1-0.1,0.1c0,0,0,0.1-0.1,0.1c-0.1,0-0.1-0.1-0.1-0.1l0,0l0,0c0.4-1.5,0.2-2,0.1-2.7c-0.1-0.4-0.2-0.8-0.3-1.4
		c0,0-0.1,0-0.1,0l0,0l0,0c0,0,0,0,0,0c0-0.1-0.1-0.3-0.1-0.5c0-0.2,0-0.4-0.2-0.6l0,0c-0.2-0.3-0.3-0.6-0.4-1
		c-0.2-0.5-0.3-1-0.8-1.6l0,0l0,0c0-0.1,0.1-0.2,0.1-0.3c0.1-0.1,0.1-0.2,0-0.3c0,0-0.1,0-0.1,0c0,0-0.1,0-0.1,0l-0.1,0l0-0.1
		c-2.4-5.2-6.6-7-9.5-7.9l0,0v-1.2l0.1,0c0.4,0.2,0.7,0.5,1,0.9c0,0,0.1,0,0.1,0c0.1,0,0.2-0.1,0.2-0.1l0.1,0l0,0.1
		c0.2,0.2,0.4,0.4,0.6,0.4c0.1,0,0.2,0,0.3,0c-0.3-0.5-0.8-0.6-1.3-0.8c-0.2-0.1-0.3-0.1-0.5-0.2c-0.1-0.1-0.1-0.2,0-0.2
		c0,0,0,0,0,0c-0.2-0.1-0.3-0.1-0.5-0.2l-0.1,0V9.6l0.3,0.1c0.8,0.1,1.6,0.3,2.3,0.8c0.1,0,0.1,0,0.2-0.1c0.1,0,0.2-0.1,0.3-0.1
		c-0.4-0.1-0.8-0.3-1.2-0.5c-0.6-0.2-1.2-0.5-1.8-0.6l-0.1,0V8.4l0.1,0c2.3,0.5,4.5,1.4,6.5,2.8c0.1,0,0.1,0,0.2,0
		c0.1,0,0.2,0,0.3,0c0.1,0,0.2,0,0.3,0.1l0.1,0.1l-0.1,0c0,0-0.1,0.1-0.2,0.1c0,0-0.1,0-0.1,0c0,0,0,0-0.1,0
		c0.2,0.2,0.5,0.3,0.7,0.4c0.3,0.1,0.6,0.3,0.8,0.5c0,0,0,0.1,0,0.1c0,0-0.1,0.1-0.1,0.1c0.7,0,1.2,0.6,1.7,1.2
		c0.3,0.3,0.6,0.6,0.9,0.9l-0.1,0.1c-0.5-0.4-0.8-0.6-1.1-0.7l0,0l0,0c-0.1-0.2-0.2-0.3-0.3-0.3c-0.1,0-0.2,0.1-0.3,0.2
		c0.1,0.1,0.2,0.2,0.4,0.2l0,0l0,0c0.2,0.3,0.5,0.7,0.8,1.1c0.8,1,1.3,1.8,1.3,2.1l0,0.2l-0.1-0.1c-2.5-3.5-5.3-5.8-8-6.7
		c0,0.1-0.1,0.2-0.1,0.3c1.5,0.7,3.4,1.8,6.2,4.5c0.2,0.2,0.2,0.3,0.2,0.3c0,0,0,0.1-0.1,0.1c0,0-0.1,0-0.1,0c0,0,0,0,0,0l0,0.1
		l-0.1-0.1c-3.1-3-5.7-4.6-7.9-5c0,0,0,0,0,0c0,0,0.1,0.1,0.1,0.1c0.1,0,0.2,0.1,0.2,0.2l0.1,0.1l-0.2,0c-0.2,0-0.3-0.1-0.5-0.2
		c-0.1,0-0.2-0.1-0.3-0.1c5.9,2.6,9.3,6,10.4,10.4l-0.1,0c-0.3-0.5-0.5-1-0.7-1.5c-0.6-1.3-1.2-2.6-2.3-3.7c-0.2,0-0.5,0-0.6,0.1
		c0,0.1,0.1,0.2,0.3,0.5c0.5,0.6,1.3,1.7,2.2,3.8C39.4,23.5,39.5,27.9,39,28.9z M38.8,13.9L38.8,13.9C38.8,13.9,38.8,13.9,38.8,13.9
		l0-0.2l0.1,0.1c0.1,0.1,0.2,0.2,0.3,0.3c0.3,0.3,0.6,0.7,0.8,1l0.1,0.2L40,15.3c-0.7-0.4-1.3-1-1.9-1.6c-0.2-0.2-0.3-0.3-0.5-0.5
		l0,0l0,0c0.1-0.1,0.1-0.3,0-0.5c0-0.1-0.1-0.1-0.1-0.2l-0.1-0.2l0.2,0.2c0.3,0.2,0.5,0.5,0.7,0.7l0,0l0,0c0,0.1-0.1,0.1-0.1,0.1
		C38.3,13.5,38.7,13.9,38.8,13.9z M37.8,16.8l0-0.2l0.2,0.2c0.3,0.3,1,1.2,0.9,1.8l0,0.1l-0.1-0.1C38.3,18.2,37.9,17.4,37.8,16.8z
		 M38.7,19L38.7,19c-0.1,0.1-0.1,0.1-0.1,0.1l-0.1,0.1l-0.1-0.1c0-0.1-0.1-0.1-0.1-0.2c-0.1-0.1-0.2-0.2-0.1-0.3l0-0.1l0.1,0.1
		c0,0,0.1,0.1,0.1,0.1C38.5,18.7,38.6,18.8,38.7,19L38.7,19z M38.9,19.6l0.1,0c0,0.1,0.1,0.2,0.2,0.3c0.1,0.2,0.3,0.4,0.2,0.5
		c0,0.1-0.1,0.1-0.1,0.2l-0.1,0l0-0.1C39,20.2,38.8,19.9,38.9,19.6z M39.2,17.7l0-0.2l0.1,0.1c0,0,0.1,0.1,0.1,0.1
		c0,0,0.1,0.1,0.1,0.1l0,0l0,0c0,0.1,0,0.3,0.1,0.5c0.1,0,0.1-0.1,0.2-0.1l0,0l0,0c0.2,0.2,0.2,0.5,0.1,0.7l-0.1,0.1l-0.1-0.1
		c-0.1-0.1-0.2-0.2-0.2-0.3C39.4,18.4,39.1,18.1,39.2,17.7z M39.5,20.9L39.5,20.9l0.1,0c0.1,0.2,0.3,0.4,0.2,0.6l-0.1,0.1l-0.1-0.1
		c0,0,0-0.1-0.1-0.1C39.5,21.3,39.4,21.1,39.5,20.9z M39.7,21.7L39.7,21.7L39.7,21.7c0.2,0,0.3,0.2,0.3,0.3c0,0,0,0.1,0,0.1l0,0.1
		l-0.3,0.2l0-0.1C39.6,22.1,39.6,21.9,39.7,21.7z M31.8,11.3L31.8,11.3c-0.1-0.1-0.2-0.1-0.2-0.1c-0.1,0-0.3-0.1-0.3-0.2
		c0-0.1,0-0.1,0-0.2l0-0.1l0.1,0.1c0,0,0.1,0,0.1,0.1c0.1,0.1,0.3,0.1,0.3,0.3L31.8,11.3z M37.5,16l-0.1,0.1
		c-0.2-0.1-0.3-0.1-0.5-0.3l0.1-0.1C37.2,15.8,37.3,15.9,37.5,16z M39.1,22l0.1,0c0.1,0.3,0.2,0.7,0.3,1c0.3,0.8,0.5,1.7,0.4,2.5
		l-0.1,0c0-0.4-0.2-0.8-0.3-1.3C39.2,23.5,39,22.7,39.1,22z M40.1,26.1c-0.1,0.1-0.2,0.1-0.2,0.1c0,0,0,0,0,0l0,0
		c-0.1-0.1,0-0.3,0-0.4c0.1-0.1,0.1-0.1,0.2-0.1l0.1,0l0,0.1c0,0,0,0.1,0,0.1C40.1,25.9,40,25.9,40.1,26.1L40.1,26.1L40.1,26.1z
		 M40.2,23.4c-0.2-0.4-0.5-0.8-0.2-1.1l0.1-0.1l0.1,0.1c0.2,0.5,0.4,0.9,0.3,1.3l0,0.2l-0.1-0.2C40.3,23.6,40.2,23.5,40.2,23.4z
		 M40.7,25.5L40.7,25.5L40.7,25.5c-0.3-0.1-0.4-0.2-0.4-0.4c0-0.2,0-0.3,0.2-0.4l0.1,0l0,0.1C40.7,24.9,40.8,25.3,40.7,25.5z
		 M41.6,22.1c-0.3-0.5-0.4-1-0.4-1.3l0-0.2l0.1,0.2c0.2,0.4,0.3,0.8,0.4,1.3L41.6,22.1z M42.1,24.1c0,0-0.1,0.1-0.1,0.1l0,0l0,0
		c-0.1-0.1-0.1-0.2-0.1-0.3c0-0.1,0.1-0.1,0.2-0.2l0.1,0l0,0.1c0,0,0,0,0,0.1C42.1,24,42.1,24,42.1,24.1z M43.2,35.8L43.2,35.8
		l-0.2,0l0.1-0.1l0,0l0.1-0.1V35.8L43.2,35.8z M44.2,24.3c-0.5-5-4.2-11.4-8.5-14.3l0.1-0.1c4.7,2.9,8.4,10,8.5,14.4L44.2,24.3z"/>
</g>
<g>
	<g>
		<g>
			<path class="st0" d="M57.1,26.5h15.8v2.8H67v0c-3.1,0.1-5.6,2.7-5.6,5.9c0,3.1,2.5,5.7,5.6,5.9v0h15.4v0c3.1-0.1,5.7-2.7,5.7-5.9
				c0-3.2-2.5-5.8-5.7-5.9v0h-5.8v-2.8h15.8v-3.7H57.1V26.5z M84.4,35.2c0,1.2-1,2.2-2.2,2.2h-15c-1.2,0-2.2-1-2.2-2.2
				c0-1.2,1-2.2,2.2-2.2h15C83.5,33.1,84.4,34,84.4,35.2z"/>
			<path class="st0" d="M87.2,16.7H82v-3h5.2V10H62.4v3.7h5.2v3h-5.2v3.7h24.9V16.7z M71.3,13.8h7v3h-7V13.8z"/>
			<polygon class="st0" points="105.1,25.3 124.6,25.3 124.6,21.6 116.9,21.6 116.9,7.3 105.1,7.3 105.1,11 113.2,11 113.2,21.6 
				95,21.6 95,25.3 101.4,25.3 101.4,31.2 95.6,31.2 95.6,34.9 121.7,34.9 121.7,42.6 125.5,42.6 125.5,31.2 105.1,31.2 			"/>
			<path class="st0" d="M137.1,34.4v-2.9h3.6v-6.1h12.5v4h3.7V10.8h-3.7V15h-12.5v-3.6h-11.4v20.2h4.1v6.6H161v-3.7H137.1z
				 M153.2,18.7v3h-12.5v-3H153.2z M133,15.1h4v12.8h-4V15.1z"/>
		</g>
	</g>
</g>
</svg>
