<svg width="20" height="20" viewBox="0 0 20 20" fill="var(--iconColor, #fff)" xmlns="http://www.w3.org/2000/svg"><g clip-path="url(#clip0_6594_12146)"><path d="M12.2001 17.4972C12.9698 17.9938 13.8871 18.2102 14.7977 18.1101C15.7083 18.0099 16.5566 17.5993 17.2001 16.9472L17.7626 16.3972C18.0092 16.1449 18.1472 15.8062 18.1472 15.4534C18.1472 15.1007 18.0092 14.7619 17.7626 14.5097L15.3751 12.1472C15.1249 11.9014 14.7883 11.7636 14.4376 11.7636C14.0869 11.7636 13.7502 11.9014 13.5001 12.1472V12.1472C13.2478 12.3938 12.9091 12.5319 12.5563 12.5319C12.2036 12.5319 11.8648 12.3938 11.6126 12.1472L7.86257 8.39718C7.73747 8.2739 7.63813 8.12698 7.57032 7.96497C7.50252 7.80295 7.4676 7.62907 7.4676 7.45343C7.4676 7.2778 7.50252 7.10392 7.57032 6.9419C7.63813 6.77988 7.73747 6.63296 7.86257 6.50968V6.50968C8.10838 6.25956 8.24613 5.92288 8.24613 5.57218C8.24613 5.22148 8.10838 4.88481 7.86257 4.63468L5.48757 2.25968C5.23532 2.01308 4.89658 1.875 4.54382 1.875C4.19105 1.875 3.85231 2.01308 3.60007 2.25968L3.05007 2.82218C2.398 3.46561 1.98736 4.31394 1.8872 5.22452C1.78703 6.1351 2.00345 7.0524 2.50007 7.82218C5.08762 11.6356 8.37999 14.9195 12.2001 17.4972V17.4972Z" stroke="var(--iconBorder, #fff)" stroke-width="1.5" stroke-linecap="round" stroke-linejoin="round"></path></g><defs><clipPath id="clip0_6594_12146"><rect width="18" height="18" fill="white" transform="translate(1 1)"></rect></clipPath></defs></svg>