<svg width="20" height="20" viewBox="0 0 20 20" fill="none" xmlns="http://www.w3.org/2000/svg"><path d="M14.4999 9.37484C16.1568 9.37484 17.4999 7.69594 17.4999 5.62492C17.4999 3.5539 16.1568 1.875 14.4999 1.875C12.8431 1.875 11.5 3.5539 11.5 5.62492C11.5 7.69594 12.8431 9.37484 14.4999 9.37484Z" stroke="var(--iconColor, #111111)" stroke-width="1.5" stroke-linecap="round" stroke-linejoin="round"></path><path d="M14.5 9.375V18.1248" stroke="var(--iconColor, #111111)" stroke-width="1.5" stroke-linecap="round" stroke-linejoin="round"></path><path d="M5.625 1.875V18.1246" stroke="var(--iconColor, #111111)" stroke-width="1.5" stroke-linecap="round" stroke-linejoin="round"></path><path d="M8.74987 1.875V4.99993C8.74987 5.4103 8.66904 5.81666 8.51199 6.19579C8.35495 6.57493 8.12477 6.91942 7.83459 7.20959C7.54442 7.49977 7.19993 7.72995 6.82079 7.88699C6.44166 8.04404 6.0353 8.12487 5.62493 8.12487V8.12487C4.79615 8.12487 4.00131 7.79563 3.41527 7.20959C2.82923 6.62356 2.5 5.82872 2.5 4.99993V1.875" stroke="var(--iconColor, #111111)" stroke-width="1.5" stroke-linecap="round" stroke-linejoin="round"></path></svg>